<svg xmlns="http://www.w3.org/2000/svg" version="1.1" xmlns:xlink="http://www.w3.org/1999/xlink" xmlns:svgjs="http://svgjs.dev/svgjs" width="1440" height="600" preserveAspectRatio="none" viewBox="0 0 1440 600"><g mask="url(&quot;#SvgjsMask2250&quot;)" fill="none"><use xlink:href="#SvgjsG2254" transform="translate(0, 0)" fill="rgba(166, 206, 57, 1)"></use><use xlink:href="#SvgjsG2254" transform="translate(600, 0)" fill="rgba(166, 206, 57, 1)"></use><use xlink:href="#SvgjsG2254" transform="translate(1200, 0)" fill="rgba(166, 206, 57, 1)"></use></g><defs><mask id="SvgjsMask2250"><rect width="1440" height="600" fill="#ffffff"></rect></mask><g id="SvgjsG2251"><path d="M16 11.289H0C0.001 12.447 0.884 12.984 1.594 12.987H14.406c0.847-0.003 1.59-0.669 1.594-1.698zM12.96 3.12H3.413v6.263c0.002 0.851 0.734 1.523 1.525 1.525h6.194c0.893-0.002 1.502-0.752 1.498-1.525v-0.519c1.768-0.002 3.05-1.328 3.05-2.876 0.001-1.575-1.256-2.869-2.72-2.868zM12.63 7.668V4.298h0.33c1.211-0.002 1.599 1.143 1.593 1.698 0.001 0.896-0.662 1.755-1.923 1.672z"></path></g><g id="SvgjsG2252"><path d="M12.872 14.056H9.025v-5.485L15.968 0H0l7.07 8.528v5.528h-3.773c-1.304 0.003-1.304 1.944 0 1.944H12.872c1.296 0 1.285-1.942 0-1.944zM8.021 4.809c-0.001-0.682 0.553-1.236 1.237-1.237 0.684 0 1.239 0.555 1.236 1.237 0.003 0.687-0.552 1.241-1.236 1.236-0.684 0.004-1.238-0.55-1.237-1.236z"></path></g><g id="SvgjsG2253"><path d="M12.049 4.244l-1.49 11.735H5.527L4.041 4.244h6.146L11.403 0 12.091 0.193l-1.164 4.048 1.122 0.003z" fill-rule="evenodd"></path></g><g id="SvgjsG2254"><use xlink:href="#SvgjsG2251" transform="translate(0, 0) scale(2.5)" fill="rgba(166, 206, 57, 1)"></use><use xlink:href="#SvgjsG2252" transform="translate(0, 60) scale(2.5)" fill="rgba(166, 206, 57, 1)"></use><use xlink:href="#SvgjsG2253" transform="translate(0, 120) scale(2.5)" fill="rgba(166, 206, 57, 1)"></use><use xlink:href="#SvgjsG2251" transform="translate(0, 180) scale(2.5)" fill="rgba(166, 206, 57, 1)"></use><use xlink:href="#SvgjsG2252" transform="translate(0, 240) scale(2.5)" fill="rgba(166, 206, 57, 1)"></use><use xlink:href="#SvgjsG2253" transform="translate(0, 300) scale(2.5)" fill="rgba(166, 206, 57, 1)"></use><use xlink:href="#SvgjsG2251" transform="translate(0, 360) scale(2.5)" fill="rgba(166, 206, 57, 1)"></use><use xlink:href="#SvgjsG2252" transform="translate(0, 420) scale(2.5)" fill="rgba(166, 206, 57, 1)"></use><use xlink:href="#SvgjsG2253" transform="translate(0, 480) scale(2.5)" fill="rgba(166, 206, 57, 1)"></use><use xlink:href="#SvgjsG2251" transform="translate(0, 540) scale(2.5)" fill="rgba(166, 206, 57, 1)"></use><use xlink:href="#SvgjsG2252" transform="translate(60, 0) scale(2.5)" fill="rgba(166, 206, 57, 1)"></use><use xlink:href="#SvgjsG2253" transform="translate(60, 60) scale(2.5)" fill="rgba(166, 206, 57, 1)"></use><use xlink:href="#SvgjsG2251" transform="translate(60, 120) scale(2.5)" fill="rgba(166, 206, 57, 1)"></use><use xlink:href="#SvgjsG2252" transform="translate(60, 180) scale(2.5)" fill="rgba(166, 206, 57, 1)"></use><use xlink:href="#SvgjsG2253" transform="translate(60, 240) scale(2.5)" fill="rgba(166, 206, 57, 1)"></use><use xlink:href="#SvgjsG2251" transform="translate(60, 300) scale(2.5)" fill="rgba(166, 206, 57, 1)"></use><use xlink:href="#SvgjsG2252" transform="translate(60, 360) scale(2.5)" fill="rgba(166, 206, 57, 1)"></use><use xlink:href="#SvgjsG2253" transform="translate(60, 420) scale(2.5)" fill="rgba(166, 206, 57, 1)"></use><use xlink:href="#SvgjsG2251" transform="translate(60, 480) scale(2.5)" fill="rgba(166, 206, 57, 1)"></use><use xlink:href="#SvgjsG2252" transform="translate(60, 540) scale(2.5)" fill="rgba(166, 206, 57, 1)"></use><use xlink:href="#SvgjsG2253" transform="translate(120, 0) scale(2.5)" fill="rgba(166, 206, 57, 1)"></use><use xlink:href="#SvgjsG2251" transform="translate(120, 60) scale(2.5)" fill="rgba(166, 206, 57, 1)"></use><use xlink:href="#SvgjsG2252" transform="translate(120, 120) scale(2.5)" fill="rgba(166, 206, 57, 1)"></use><use xlink:href="#SvgjsG2253" transform="translate(120, 180) scale(2.5)" fill="rgba(166, 206, 57, 1)"></use><use xlink:href="#SvgjsG2251" transform="translate(120, 240) scale(2.5)" fill="rgba(166, 206, 57, 1)"></use><use xlink:href="#SvgjsG2252" transform="translate(120, 300) scale(2.5)" fill="rgba(166, 206, 57, 1)"></use><use xlink:href="#SvgjsG2253" transform="translate(120, 360) scale(2.5)" fill="rgba(166, 206, 57, 1)"></use><use xlink:href="#SvgjsG2251" transform="translate(120, 420) scale(2.5)" fill="rgba(166, 206, 57, 1)"></use><use xlink:href="#SvgjsG2252" transform="translate(120, 480) scale(2.5)" fill="rgba(166, 206, 57, 1)"></use><use xlink:href="#SvgjsG2253" transform="translate(120, 540) scale(2.5)" fill="rgba(166, 206, 57, 1)"></use><use xlink:href="#SvgjsG2251" transform="translate(180, 0) scale(2.5)" fill="rgba(166, 206, 57, 1)"></use><use xlink:href="#SvgjsG2252" transform="translate(180, 60) scale(2.5)" fill="rgba(166, 206, 57, 1)"></use><use xlink:href="#SvgjsG2253" transform="translate(180, 120) scale(2.5)" fill="rgba(166, 206, 57, 1)"></use><use xlink:href="#SvgjsG2251" transform="translate(180, 180) scale(2.5)" fill="rgba(166, 206, 57, 1)"></use><use xlink:href="#SvgjsG2252" transform="translate(180, 240) scale(2.5)" fill="rgba(166, 206, 57, 1)"></use><use xlink:href="#SvgjsG2253" transform="translate(180, 300) scale(2.5)" fill="rgba(166, 206, 57, 1)"></use><use xlink:href="#SvgjsG2251" transform="translate(180, 360) scale(2.5)" fill="rgba(166, 206, 57, 1)"></use><use xlink:href="#SvgjsG2252" transform="translate(180, 420) scale(2.5)" fill="rgba(166, 206, 57, 1)"></use><use xlink:href="#SvgjsG2253" transform="translate(180, 480) scale(2.5)" fill="rgba(166, 206, 57, 1)"></use><use xlink:href="#SvgjsG2251" transform="translate(180, 540) scale(2.5)" fill="rgba(166, 206, 57, 1)"></use><use xlink:href="#SvgjsG2252" transform="translate(240, 0) scale(2.5)" fill="rgba(166, 206, 57, 1)"></use><use xlink:href="#SvgjsG2253" transform="translate(240, 60) scale(2.5)" fill="rgba(166, 206, 57, 1)"></use><use xlink:href="#SvgjsG2251" transform="translate(240, 120) scale(2.5)" fill="rgba(166, 206, 57, 1)"></use><use xlink:href="#SvgjsG2252" transform="translate(240, 180) scale(2.5)" fill="rgba(166, 206, 57, 1)"></use><use xlink:href="#SvgjsG2253" transform="translate(240, 240) scale(2.5)" fill="rgba(166, 206, 57, 1)"></use><use xlink:href="#SvgjsG2251" transform="translate(240, 300) scale(2.5)" fill="rgba(166, 206, 57, 1)"></use><use xlink:href="#SvgjsG2252" transform="translate(240, 360) scale(2.5)" fill="rgba(166, 206, 57, 1)"></use><use xlink:href="#SvgjsG2253" transform="translate(240, 420) scale(2.5)" fill="rgba(166, 206, 57, 1)"></use><use xlink:href="#SvgjsG2251" transform="translate(240, 480) scale(2.5)" fill="rgba(166, 206, 57, 1)"></use><use xlink:href="#SvgjsG2252" transform="translate(240, 540) scale(2.5)" fill="rgba(166, 206, 57, 1)"></use><use xlink:href="#SvgjsG2253" transform="translate(300, 0) scale(2.5)" fill="rgba(166, 206, 57, 1)"></use><use xlink:href="#SvgjsG2251" transform="translate(300, 60) scale(2.5)" fill="rgba(166, 206, 57, 1)"></use><use xlink:href="#SvgjsG2252" transform="translate(300, 120) scale(2.5)" fill="rgba(166, 206, 57, 1)"></use><use xlink:href="#SvgjsG2253" transform="translate(300, 180) scale(2.5)" fill="rgba(166, 206, 57, 1)"></use><use xlink:href="#SvgjsG2251" transform="translate(300, 240) scale(2.5)" fill="rgba(166, 206, 57, 1)"></use><use xlink:href="#SvgjsG2252" transform="translate(300, 300) scale(2.5)" fill="rgba(166, 206, 57, 1)"></use><use xlink:href="#SvgjsG2253" transform="translate(300, 360) scale(2.5)" fill="rgba(166, 206, 57, 1)"></use><use xlink:href="#SvgjsG2251" transform="translate(300, 420) scale(2.5)" fill="rgba(166, 206, 57, 1)"></use><use xlink:href="#SvgjsG2252" transform="translate(300, 480) scale(2.5)" fill="rgba(166, 206, 57, 1)"></use><use xlink:href="#SvgjsG2253" transform="translate(300, 540) scale(2.5)" fill="rgba(166, 206, 57, 1)"></use><use xlink:href="#SvgjsG2251" transform="translate(360, 0) scale(2.5)" fill="rgba(166, 206, 57, 1)"></use><use xlink:href="#SvgjsG2252" transform="translate(360, 60) scale(2.5)" fill="rgba(166, 206, 57, 1)"></use><use xlink:href="#SvgjsG2253" transform="translate(360, 120) scale(2.5)" fill="rgba(166, 206, 57, 1)"></use><use xlink:href="#SvgjsG2251" transform="translate(360, 180) scale(2.5)" fill="rgba(166, 206, 57, 1)"></use><use xlink:href="#SvgjsG2252" transform="translate(360, 240) scale(2.5)" fill="rgba(166, 206, 57, 1)"></use><use xlink:href="#SvgjsG2253" transform="translate(360, 300) scale(2.5)" fill="rgba(166, 206, 57, 1)"></use><use xlink:href="#SvgjsG2251" transform="translate(360, 360) scale(2.5)" fill="rgba(166, 206, 57, 1)"></use><use xlink:href="#SvgjsG2252" transform="translate(360, 420) scale(2.5)" fill="rgba(166, 206, 57, 1)"></use><use xlink:href="#SvgjsG2253" transform="translate(360, 480) scale(2.5)" fill="rgba(166, 206, 57, 1)"></use><use xlink:href="#SvgjsG2251" transform="translate(360, 540) scale(2.5)" fill="rgba(166, 206, 57, 1)"></use><use xlink:href="#SvgjsG2252" transform="translate(420, 0) scale(2.5)" fill="rgba(166, 206, 57, 1)"></use><use xlink:href="#SvgjsG2253" transform="translate(420, 60) scale(2.5)" fill="rgba(166, 206, 57, 1)"></use><use xlink:href="#SvgjsG2251" transform="translate(420, 120) scale(2.5)" fill="rgba(166, 206, 57, 1)"></use><use xlink:href="#SvgjsG2252" transform="translate(420, 180) scale(2.5)" fill="rgba(166, 206, 57, 1)"></use><use xlink:href="#SvgjsG2253" transform="translate(420, 240) scale(2.5)" fill="rgba(166, 206, 57, 1)"></use><use xlink:href="#SvgjsG2251" transform="translate(420, 300) scale(2.5)" fill="rgba(166, 206, 57, 1)"></use><use xlink:href="#SvgjsG2252" transform="translate(420, 360) scale(2.5)" fill="rgba(166, 206, 57, 1)"></use><use xlink:href="#SvgjsG2253" transform="translate(420, 420) scale(2.5)" fill="rgba(166, 206, 57, 1)"></use><use xlink:href="#SvgjsG2251" transform="translate(420, 480) scale(2.5)" fill="rgba(166, 206, 57, 1)"></use><use xlink:href="#SvgjsG2252" transform="translate(420, 540) scale(2.5)" fill="rgba(166, 206, 57, 1)"></use><use xlink:href="#SvgjsG2253" transform="translate(480, 0) scale(2.5)" fill="rgba(166, 206, 57, 1)"></use><use xlink:href="#SvgjsG2251" transform="translate(480, 60) scale(2.5)" fill="rgba(166, 206, 57, 1)"></use><use xlink:href="#SvgjsG2252" transform="translate(480, 120) scale(2.5)" fill="rgba(166, 206, 57, 1)"></use><use xlink:href="#SvgjsG2253" transform="translate(480, 180) scale(2.5)" fill="rgba(166, 206, 57, 1)"></use><use xlink:href="#SvgjsG2251" transform="translate(480, 240) scale(2.5)" fill="rgba(166, 206, 57, 1)"></use><use xlink:href="#SvgjsG2252" transform="translate(480, 300) scale(2.5)" fill="rgba(166, 206, 57, 1)"></use><use xlink:href="#SvgjsG2253" transform="translate(480, 360) scale(2.5)" fill="rgba(166, 206, 57, 1)"></use><use xlink:href="#SvgjsG2251" transform="translate(480, 420) scale(2.5)" fill="rgba(166, 206, 57, 1)"></use><use xlink:href="#SvgjsG2252" transform="translate(480, 480) scale(2.5)" fill="rgba(166, 206, 57, 1)"></use><use xlink:href="#SvgjsG2253" transform="translate(480, 540) scale(2.5)" fill="rgba(166, 206, 57, 1)"></use><use xlink:href="#SvgjsG2251" transform="translate(540, 0) scale(2.5)" fill="rgba(166, 206, 57, 1)"></use><use xlink:href="#SvgjsG2252" transform="translate(540, 60) scale(2.5)" fill="rgba(166, 206, 57, 1)"></use><use xlink:href="#SvgjsG2253" transform="translate(540, 120) scale(2.5)" fill="rgba(166, 206, 57, 1)"></use><use xlink:href="#SvgjsG2251" transform="translate(540, 180) scale(2.5)" fill="rgba(166, 206, 57, 1)"></use><use xlink:href="#SvgjsG2252" transform="translate(540, 240) scale(2.5)" fill="rgba(166, 206, 57, 1)"></use><use xlink:href="#SvgjsG2253" transform="translate(540, 300) scale(2.5)" fill="rgba(166, 206, 57, 1)"></use><use xlink:href="#SvgjsG2251" transform="translate(540, 360) scale(2.5)" fill="rgba(166, 206, 57, 1)"></use><use xlink:href="#SvgjsG2252" transform="translate(540, 420) scale(2.5)" fill="rgba(166, 206, 57, 1)"></use><use xlink:href="#SvgjsG2253" transform="translate(540, 480) scale(2.5)" fill="rgba(166, 206, 57, 1)"></use><use xlink:href="#SvgjsG2251" transform="translate(540, 540) scale(2.5)" fill="rgba(166, 206, 57, 1)"></use></g></defs></svg>